<svg width="170" height="324" viewBox="0 0 170 324" fill="none" xmlns="http://www.w3.org/2000/svg">
<path fill-rule="evenodd" clip-rule="evenodd" d="M73.3342 3.94941C62.1592 17.5874 60.6742 33.1004 69.1282 47.8894C70.4992 50.2864 71.6252 53.3084 71.6322 54.6054C71.6392 55.9024 69.4062 60.3094 66.6712 64.3994C63.9352 68.4894 59.8122 75.6404 57.5072 80.2914C55.2032 84.9424 52.9142 88.7474 52.4222 88.7474C51.9292 88.7474 51.7602 88.3694 52.0452 87.9074C52.3312 87.4454 53.0642 82.9544 53.6762 77.9274C55.6012 62.0924 52.1942 48.2984 44.0472 38.9484L40.8222 35.2474L38.6432 40.2474C31.1052 57.5474 33.1222 71.5894 44.9882 84.4054C48.0992 87.7654 50.6442 91.4094 50.6442 92.5034C50.6442 93.5974 49.0632 99.3204 47.1302 105.22C45.1972 111.12 43.0702 118.827 42.4022 122.347C41.7342 125.867 40.8732 128.747 40.4882 128.747C40.1032 128.747 39.5132 126.159 39.1782 122.997C38.1292 113.119 35.5582 103.476 32.3572 97.4134C29.0602 91.1714 19.2242 81.4894 16.6772 81.9794C13.5802 82.5764 12.6612 98.4724 15.2592 106.517C17.6232 113.839 23.2072 120.575 31.6712 126.317L39.1442 131.387L39.0712 136.317C38.8122 153.763 38.0532 170.735 37.5312 170.74C37.1942 170.744 35.4852 166.741 33.7332 161.845C30.5462 152.935 24.6562 143.281 19.7532 138.933C15.4782 135.141 3.54924 129.442 2.36524 130.626C0.608237 132.383 3.31724 145.566 6.91024 152.74C11.0822 161.07 19.4332 167.714 29.6212 170.809C33.4232 171.963 36.9502 173.434 37.4602 174.078C37.9702 174.721 38.9262 179.627 39.5862 184.981C40.2452 190.334 41.6622 198.388 42.7342 202.878C43.8062 207.367 44.5012 211.224 44.2772 211.448C44.0532 211.672 41.7882 208.724 39.2432 204.896C33.5862 196.386 23.8592 187.197 17.7252 184.567C11.4082 181.86 1.36724 179.624 0.302237 180.689C-0.725763 181.717 0.938235 187.292 4.23624 193.877C6.97924 199.351 13.6532 206.184 18.8642 208.852C24.0622 211.514 33.1812 213.747 38.8542 213.747C43.6232 213.747 47.6442 216.099 47.6442 218.889C47.6442 220.693 54.7002 236.651 58.3662 243.138C60.1972 246.378 61.4772 249.247 61.2102 249.514C60.9442 249.781 57.6992 247.226 54.0002 243.836C43.3502 234.077 30.4692 228.72 17.7582 228.762C15.2202 228.771 12.4702 229.204 11.6462 229.724C10.3342 230.554 10.3752 231.092 11.9802 234.072C14.8672 239.434 22.4202 247.535 26.9772 250.16C29.2692 251.479 33.6802 253.111 36.7792 253.786C42.0452 254.933 44.9502 254.849 58.2692 253.165L63.3952 252.516L68.9882 260.08C72.0652 264.24 77.5752 270.817 81.2342 274.695C84.8932 278.574 87.3692 281.747 86.7372 281.747C86.1042 281.747 83.0122 280.449 79.8652 278.862C65.5442 271.64 51.7722 269.919 39.2492 273.787C35.6012 274.914 32.6442 276.402 32.6442 277.11C32.6442 279.043 42.4252 286.689 48.5052 289.509C58.7102 294.242 71.6642 293.345 82.3222 287.168C84.6202 285.837 87.5452 284.756 88.8222 284.768C90.0992 284.779 95.1402 287.47 100.023 290.748C104.906 294.026 111.994 298.166 115.773 299.948C123.523 303.603 124.604 305.254 118.581 304.236C116.347 303.859 109.26 303.558 102.831 303.568C93.7372 303.582 89.8852 304.03 85.4722 305.586C77.6192 308.354 68.4242 314.366 68.8292 316.467C69.4072 319.469 80.1752 323.024 90.1442 323.504C102.671 324.106 108.386 321.886 118.13 312.63C122.418 308.557 126.243 305.747 127.499 305.747C128.666 305.747 132.889 306.631 136.883 307.711C144.625 309.805 158.331 311.747 165.368 311.747C168.932 311.747 169.644 311.424 169.644 309.808C169.644 307.741 168.611 307.496 154.644 306.249C146.522 305.524 137.374 303.816 135.539 302.682C134.444 302.005 134.144 298.529 134.144 286.533C134.144 271.928 134.023 271.001 131.428 265.717C129.934 262.675 127.387 258.917 125.767 257.365L122.823 254.544L121.203 257.016C117.736 262.307 115.411 271.033 115.926 276.819C116.569 284.037 119.217 289.083 125.809 295.649C130.943 300.762 131.031 300.939 128.144 300.341C124.224 299.53 107.676 291.278 102.609 287.607C97.7452 284.083 97.6052 282.124 101.612 273.652C105.553 265.317 106.977 257.92 106.4 248.78C105.896 240.802 104.189 235.747 101.998 235.747C101.269 235.747 98.6302 238.335 96.1332 241.497C86.8962 253.194 86.4092 265.463 94.6672 278.452C97.8032 283.384 94.1622 281.718 87.5462 275.192C78.4122 266.183 71.6442 257.198 71.6442 254.081C71.6442 252.584 72.9592 250.36 74.9852 248.43C84.7662 239.112 90.3062 226.743 89.4302 216.18C89.1822 213.193 88.6552 210.425 88.2582 210.028C87.0572 208.827 78.8412 213.786 75.0142 218.023C68.9942 224.687 67.3162 229.721 67.9742 239.156C68.2842 243.606 68.8212 248.597 69.1672 250.247L69.7972 253.247L67.7452 250.747C64.5292 246.827 52.6442 222.762 52.6442 220.17C52.6442 217.712 53.4772 216.978 63.2712 210.809C74.4092 203.793 81.7272 190.5 80.7452 179.067C80.6272 177.69 77.3132 178.473 70.4912 181.49C59.5382 186.335 52.6462 196.958 52.6452 208.997C52.6442 212.71 52.2072 215.747 51.6732 215.747C49.7652 215.747 43.6452 190.897 43.6442 183.152C43.6442 179.448 45.9002 177.225 50.6442 176.252C55.5342 175.249 63.3712 171.211 68.3582 167.126C72.9702 163.346 80.3422 150.008 79.3072 147.312C78.8412 146.097 77.7172 145.906 73.9312 146.402C58.4792 148.424 47.5412 158.351 45.1782 172.497C44.7882 174.834 44.0942 176.747 43.6362 176.747C41.5052 176.747 41.2712 156.016 43.2502 142.588C43.8852 138.276 45.9852 137.18 55.1442 136.381C63.3422 135.665 67.6532 134.261 73.2942 130.47C78.5752 126.921 85.8192 118.105 85.3932 115.747C85.0362 113.768 70.9272 113.145 64.8412 114.839C59.0622 116.447 51.3922 123.519 48.0772 130.294C45.3682 135.832 43.1892 137.593 44.1152 133.497C44.3942 132.259 45.2852 127.953 46.0942 123.927C46.9032 119.902 48.7212 112.819 50.1332 108.189C53.0622 98.5884 53.8682 98.0284 63.1762 99.1224C74.9682 100.508 88.0332 96.7344 96.1662 89.5944C100.403 85.8744 99.8582 84.8364 92.3592 82.3404C80.4062 78.3614 67.9472 82.0054 59.1602 92.0504C56.6762 94.8894 54.6452 96.5454 54.6462 95.7304C54.6482 93.9564 64.1102 74.8884 68.2292 68.3564C69.8322 65.8134 71.9272 63.4824 72.8832 63.1764C73.8402 62.8704 78.1152 63.8564 82.3832 65.3684C93.4302 69.2824 104.789 69.3504 112.894 65.5524C116.056 64.0704 118.644 62.2194 118.644 61.4384C118.644 59.7824 112.765 55.5144 107.426 53.2934C102.739 51.3444 93.1582 51.3024 87.7592 53.2074C85.4842 54.0094 81.5702 56.0784 79.0632 57.8034C76.5552 59.5284 74.2552 60.6914 73.9512 60.3874C73.2892 59.7254 84.6672 46.0004 90.8982 39.9464C94.8822 36.0744 96.2102 35.4594 104.234 33.7744C114.678 31.5814 120.898 29.0874 125.43 25.2744C129.114 22.1744 137.644 11.4334 137.644 9.89441C137.644 9.34141 135.115 8.36441 132.025 7.72241C117.158 4.63641 104.149 11.8824 97.0762 27.1874C94.8252 32.0574 92.1562 35.7984 88.4702 39.2474C85.5312 41.9974 80.9932 46.7144 78.3852 49.7304C72.9122 56.0594 72.3722 54.8284 76.5672 45.5774C80.8242 36.1894 82.9262 27.2674 82.8872 18.7474C82.8532 11.0184 80.1622 0.704413 78.0002 0.0154134C77.3712 -0.184587 75.2722 1.58541 73.3342 3.94941Z" fill="black"/>
</svg>
